/* XPM */
static char *ab13f773320445f3c28798e9880c2763o0v77pZJhA7JpoKu[] = {
/* columns rows colors chars-per-pixel */
"32 32 5 1 ",
"  c None",
". c #613E14",
"X c #7A5120",
"o c #9C621C",
"O c #CC8F4E",
/* pixels */
"....                            ",
"....                            ",
"..oo....                        ",
"..oo....                        ",
"..ooooXX....                    ",
"..ooooXX....                    ",
"..XXooOOooXX....                ",
"..XXooOOooXX....                ",
"..XXooooOOOOoo..                ",
"..XXooooOOOOoo..                ",
"..XXXXoooooo..                  ",
"..XXXXoooooo..                  ",
"..XXXXXXXX..                    ",
"..XXXXXXXX..                    ",
"..XX....XXoo..                  ",
"..XX....XXoo..                  ",
"....    ..XXXX..                ",
"....    ..XXXX..                ",
"          ......                ",
"          ......                ",
"                                ",
"                                ",
"                                ",
"                                ",
"                                ",
"                                ",
"                                ",
"                                ",
"                                ",
"                                ",
"                                ",
"                                "
};
